<svg xmlns="http://www.w3.org/2000/svg" viewBox="0 0 320 360" role="img" aria-labelledby="title desc">
  <title id="title">Uplift Web logo</title>
  <desc id="desc">A dark blue browser window with an upward arrow and the words UpLift Web beneath it.</desc>
  <defs>
    <linearGradient id="g" x1="0%" y1="0%" x2="100%" y2="100%">
      <stop offset="0%" stop-color="#2d3a9c" />
      <stop offset="100%" stop-color="#0c1c68" />
    </linearGradient>
  </defs>
  <rect x="20" y="30" width="280" height="190" rx="28" fill="url(#g)" />
  <rect x="42" y="52" width="236" height="146" rx="16" fill="#f7f8fd" />
  <circle cx="68" cy="79" r="9" fill="#0c1c68" />
  <circle cx="96" cy="79" r="9" fill="#0c1c68" />
  <circle cx="124" cy="79" r="9" fill="#0c1c68" />
  <path d="M165 230v-66h-32l47-72 47 72h-32v66z" fill="#0c1c68" />
  <path d="M96 306c-4 0-7-3-7-7v-20c0-4 3-7 7-7h128c4 0 7 3 7 7v20c0 4-3 7-7 7z" fill="#0c1c68" />
  <text x="160" y="344" text-anchor="middle" font-family="'Inter', 'Helvetica Neue', Arial, sans-serif" font-weight="700" font-size="32" fill="#0c1c68">UpLift <tspan font-weight="400" fill="#2d3a9c">Web</tspan></text>
</svg>
